<svg width="12" height="12" viewBox="0 0 12 12" fill="none" xmlns="http://www.w3.org/2000/svg">
<path fill-rule="evenodd" clip-rule="evenodd" d="M1.85358 5.58857C1.6539 5.61607 1.5 5.78977 1.5 5.99994C1.5 6.22923 1.68316 6.4151 1.90909 6.4151H9.09997L6.50235 9.04067L6.46264 9.08715C6.34348 9.24943 6.35621 9.4801 6.50115 9.62779C6.66058 9.79026 6.9196 9.7908 7.07969 9.62901L10.3738 6.2998C10.3935 6.28072 10.4112 6.25968 10.4268 6.23698C10.5383 6.07485 10.5226 5.84996 10.3797 5.70553L7.07967 2.37097L7.0337 2.33087C6.87329 2.21063 6.64605 2.22452 6.50113 2.37223C6.34171 2.53471 6.34227 2.79757 6.50237 2.95935L9.10061 5.58478L1.90909 5.58478L1.85358 5.58857Z" fill="#F0346E"/>
</svg>
