<svg width="40" height="40" viewBox="0 0 40 40" fill="none" xmlns="http://www.w3.org/2000/svg">
<path fill-rule="evenodd" clip-rule="evenodd" d="M20.0479 3.33341C12.3662 3.30731 6.09175 9.41892 5.84096 17.0689L5.83325 17.5438C5.96093 21.2934 7.23671 24.8678 9.48372 27.8127L10.0115 28.5014C12.1563 31.2285 14.7051 33.6222 17.567 35.5952L18.2561 36.059L18.3567 36.138C19.3376 36.8428 20.662 36.8428 21.6429 36.138L21.7266 36.0692C23.9975 34.5965 26.0916 32.866 27.9674 30.9121C31.7809 26.8753 34.0794 22.3521 34.1662 17.7583L34.1664 17.5877C34.1924 9.88653 28.0997 3.59278 20.4732 3.34115L20.0479 3.33341ZM20.0393 5.86247C26.3369 5.884 31.4499 10.9157 31.6397 17.1819L31.6451 17.7344C31.5722 21.5858 29.5556 25.5541 26.1442 29.1653C24.4048 30.9771 22.4545 32.5876 20.3391 33.9574L20.1982 34.0634C20.0842 34.1623 19.9153 34.1623 19.8014 34.0634L19.6643 33.96C16.5132 31.9026 13.7475 29.3051 11.4938 26.2862C9.67851 23.907 8.6028 21.0623 8.38628 18.0948L8.35447 17.4998C8.37586 11.1871 13.3921 6.05833 19.639 5.86788L20.0393 5.86247ZM19.9998 12.3355C17.0191 12.3355 14.6028 14.7592 14.6028 17.7491C14.6028 20.739 17.0191 23.1627 19.9998 23.1627C22.9804 23.1627 25.3967 20.739 25.3967 17.7491C25.3967 14.7592 22.9804 12.3355 19.9998 12.3355ZM19.9997 14.8645C21.5879 14.8645 22.8754 16.156 22.8754 17.7491C22.8754 19.3422 21.5879 20.6337 19.9997 20.6337C18.4115 20.6337 17.124 19.3422 17.124 17.7491C17.124 16.156 18.4115 14.8645 19.9997 14.8645Z" fill="#EC0986"/>
</svg>
