<svg width="40" height="40" viewBox="0 0 40 40" fill="none" xmlns="http://www.w3.org/2000/svg">
<path fill-rule="evenodd" clip-rule="evenodd" d="M19.9997 3.33415C10.7943 3.33415 3.33301 10.7955 3.33301 20.0008C3.33301 29.2062 10.7943 36.6675 19.9997 36.6675C29.205 36.6675 36.6663 29.2062 36.6663 20.0008C36.6663 10.7955 29.205 3.33415 19.9997 3.33415ZM19.9997 5.83415C27.8243 5.83415 34.1663 12.1762 34.1663 20.0008C34.1663 27.8255 27.8243 34.1675 19.9997 34.1675C12.175 34.1675 5.83301 27.8255 5.83301 20.0008C5.83301 12.1762 12.175 5.83415 19.9997 5.83415ZM20.6743 12.9085C20.5915 12.2984 20.0685 11.8281 19.4357 11.8281C18.7453 11.8281 18.1857 12.3878 18.1857 13.0781V21.1565L18.1996 21.3427C18.2548 21.7095 18.4712 22.0367 18.7953 22.23L25.0786 25.9783L25.2301 26.0554C25.7965 26.2969 26.4683 26.0887 26.7925 25.5452L26.8696 25.3937C27.1111 24.8273 26.9029 24.1555 26.3594 23.8313L20.685 20.445L20.6857 13.0781L20.6743 12.9085Z" fill="#EC0986"/>
</svg>
