<svg width="40" height="40" viewBox="0 0 40 40" fill="none" xmlns="http://www.w3.org/2000/svg">
<path fill-rule="evenodd" clip-rule="evenodd" d="M10.7842 3.33622L10.8286 3.33908C11.7017 3.41145 12.4601 3.84537 13.1524 4.52176C14.468 5.80665 17.2929 9.55612 17.5062 10.5765C17.7423 11.7149 17.4899 12.4542 16.7375 13.7621L16.5552 14.0844C16.2099 14.715 16.1571 14.9754 16.264 15.2735C17.9067 19.2939 20.71 22.0967 24.6844 23.72C25.0608 23.8563 25.345 23.7782 26.1404 23.3219L26.5555 23.087C27.6738 22.4737 28.3826 22.2799 29.4277 22.4975C30.4445 22.7106 34.1961 25.5374 35.4791 26.8513C36.1545 27.5429 36.5894 28.3026 36.6651 29.2333C36.745 31.4953 33.9848 34.6803 32.301 35.6379C30.3862 37.0076 27.9563 36.9849 25.2318 35.7169C18.107 32.7521 7.2085 21.9232 4.30413 14.8072L4.13027 14.4092C3.02745 11.7733 3.05135 9.49611 4.31513 7.77931C5.46829 5.86962 8.57741 3.23416 10.7842 3.33622ZM10.6495 5.77329L10.5026 5.78083C9.36993 5.9313 7.09853 7.88679 6.34211 9.13057L6.21143 9.32504C5.55979 10.3867 5.63532 11.8448 6.54256 13.8412L6.71595 14.247C9.64182 20.8137 19.7724 30.8036 26.2141 33.4852L26.5689 33.643C28.4326 34.433 29.8435 34.398 30.9857 33.588L31.0702 33.5337C31.4236 33.2881 32.2387 32.5475 32.8665 31.8231C33.7483 30.8055 34.2478 29.8733 34.2317 29.377C34.2141 29.1647 34.0503 28.8785 33.7347 28.5554C32.781 27.5786 29.3125 24.9652 28.9291 24.8848C28.5666 24.8093 28.2691 24.9108 27.4555 25.3788L27.0462 25.6087C25.8475 26.2552 25.0025 26.4289 23.8087 25.9955C19.182 24.1071 15.8974 20.823 13.989 16.1497C13.5369 14.9002 13.7803 14.0161 14.5663 12.6461L14.7536 12.3165C15.1107 11.6718 15.1863 11.3982 15.119 11.0737C15.0385 10.6882 12.4267 7.22169 11.4486 6.26648C11.1248 5.95005 10.8402 5.78722 10.6272 5.76957L10.6495 5.77329Z" fill="#F0346E"/>
</svg>
