<svg width="12" height="14" viewBox="0 0 12 14" fill="none" xmlns="http://www.w3.org/2000/svg">
<path fill-rule="evenodd" clip-rule="evenodd" d="M3.93341 0.333313H8.04675C9.85341 0.333313 11.3134 1.04665 11.3334 2.85998V12.98C11.3334 13.0933 11.3067 13.2066 11.2534 13.3066C11.1667 13.4666 11.0201 13.5866 10.8401 13.64C10.6667 13.6933 10.4734 13.6666 10.3134 13.5733L5.99341 11.4133L1.66675 13.5733C1.56741 13.626 1.45341 13.66 1.34008 13.66C0.966748 13.66 0.666748 13.3533 0.666748 12.98V2.85998C0.666748 1.04665 2.13341 0.333313 3.93341 0.333313ZM3.4801 5.41332H8.5001C8.78677 5.41332 9.0201 5.17932 9.0201 4.88665C9.0201 4.59332 8.78677 4.35999 8.5001 4.35999H3.4801C3.19343 4.35999 2.9601 4.59332 2.9601 4.88665C2.9601 5.17932 3.19343 5.41332 3.4801 5.41332Z" fill="black"/>
</svg>
