<svg width="16" height="16" viewBox="0 0 16 16" fill="none" xmlns="http://www.w3.org/2000/svg">
<path fill-rule="evenodd" clip-rule="evenodd" d="M8.01936 1.33336C4.94668 1.32292 2.43689 3.76756 2.33658 6.82756L2.3335 7.0175C2.38457 8.51738 2.89488 9.94712 3.79368 11.1251L4.00478 11.4005C4.8627 12.4914 5.88224 13.4489 7.02701 14.2381L7.30264 14.4236L7.34286 14.4552C7.73523 14.7371 8.265 14.7371 8.65737 14.4552L8.69085 14.4277C9.5992 13.8386 10.4368 13.1464 11.1871 12.3649C12.7126 10.7501 13.632 8.94083 13.6667 7.10332L13.6668 7.03509C13.6772 3.95461 11.2401 1.43711 8.18947 1.33646L8.01936 1.33336ZM8.01595 2.34495C10.535 2.35357 12.5802 4.36625 12.6561 6.87272L12.6583 7.09372C12.6291 8.63427 11.8225 10.2216 10.4579 11.6661C9.76214 12.3908 8.98201 13.035 8.13589 13.5829L8.0795 13.6253C8.03393 13.6649 7.96634 13.6649 7.92077 13.6253L7.86596 13.584C6.6055 12.761 5.49923 11.722 4.59776 10.5145C3.87164 9.56277 3.44135 8.4249 3.35474 7.2379L3.34202 6.99989C3.35057 4.47479 5.35706 2.4233 7.85582 2.34712L8.01595 2.34495ZM8.00013 4.93419C6.80786 4.93419 5.84135 5.90369 5.84135 7.09963C5.84135 8.29558 6.80786 9.26508 8.00013 9.26508C9.19239 9.26508 10.1589 8.29558 10.1589 7.09963C10.1589 5.90369 9.19239 4.93419 8.00013 4.93419ZM8.00015 5.9458C8.63543 5.9458 9.15042 6.46239 9.15042 7.09963C9.15042 7.73687 8.63543 8.25346 8.00015 8.25346C7.36487 8.25346 6.84987 7.73687 6.84987 7.09963C6.84987 6.46239 7.36487 5.9458 8.00015 5.9458Z" fill="#9F9F9F"/>
</svg>
