<svg width="20" height="20" viewBox="0 0 20 20" fill="none" xmlns="http://www.w3.org/2000/svg">
<path d="M18.8876 17.5321L14.3681 12.994C15.5302 11.6603 16.1668 9.98231 16.1668 8.23542C16.1668 4.15398 12.7274 0.833344 8.49992 0.833344C4.27245 0.833344 0.833008 4.15398 0.833008 8.23542C0.833008 12.3169 4.27245 15.6375 8.49992 15.6375C10.087 15.6375 11.5994 15.1753 12.8924 14.298L17.4462 18.8706C17.6366 19.0614 17.8926 19.1667 18.1669 19.1667C18.4266 19.1667 18.6729 19.0711 18.8599 18.8973C19.2573 18.5282 19.2699 17.916 18.8876 17.5321ZM8.49992 2.76432C11.6247 2.76432 14.1668 5.21859 14.1668 8.23542C14.1668 11.2522 11.6247 13.7065 8.49992 13.7065C5.37516 13.7065 2.83307 11.2522 2.83307 8.23542C2.83307 5.21859 5.37516 2.76432 8.49992 2.76432Z" fill="#A8A8A8"/>
</svg>
