<svg width="14" height="14" viewBox="0 0 14 14" fill="none" xmlns="http://www.w3.org/2000/svg">
<path fill-rule="evenodd" clip-rule="evenodd" d="M6.99984 1.16699C3.77796 1.16699 1.1665 3.77845 1.1665 7.00033C1.1665 10.2222 3.77796 12.8337 6.99984 12.8337C10.2217 12.8337 12.8332 10.2222 12.8332 7.00033C12.8332 3.77845 10.2217 1.16699 6.99984 1.16699ZM6.99984 2.04199C9.73846 2.04199 11.9582 4.2617 11.9582 7.00033C11.9582 9.73895 9.73846 11.9587 6.99984 11.9587C4.26121 11.9587 2.0415 9.73895 2.0415 7.00033C2.0415 4.2617 4.26121 2.04199 6.99984 2.04199ZM7.23606 4.51804C7.20709 4.30449 7.02404 4.1399 6.80255 4.1399C6.56093 4.1399 6.36505 4.33578 6.36505 4.5774V7.40482L6.36993 7.47C6.38925 7.59837 6.465 7.71288 6.57841 7.78054L8.77758 9.09246L8.83061 9.11944C9.02884 9.20397 9.26397 9.13109 9.37744 8.94087L9.40443 8.88785C9.48895 8.68961 9.41607 8.45448 9.22586 8.34101L7.23982 7.15579L7.24005 4.5774L7.23606 4.51804Z" fill="#200E32"/>
</svg>
