<svg width="38" height="38" viewBox="0 0 38 38" fill="none" xmlns="http://www.w3.org/2000/svg">
<g clip-path="url(#clip0)">
<path d="M0.882778 38C0.669399 38 0.461819 37.9156 0.307873 37.7599C0.104931 37.5547 0.0266534 37.2567 0.102902 36.978L2.57328 27.957C1.03527 25.1758 0.224377 22.0296 0.225536 18.8359C0.229885 8.44963 8.68213 0 19.0675 0C24.1048 0.00202942 28.838 1.96419 32.3956 5.52437C35.9526 9.08484 37.9107 13.8177 37.9092 18.851C37.9046 29.2375 29.4524 37.6878 19.0675 37.6878C19.0675 37.6878 19.0597 37.6878 19.0594 37.6878C16.026 37.6866 13.0187 36.9473 10.341 35.547L1.08775 37.9736C1.01991 37.9913 0.950909 38 0.882778 38Z" fill="#E5E5E5"/>
<path d="M0.882812 37.1916L3.44104 27.8496C1.86302 25.1154 1.03299 22.0138 1.03415 18.8363C1.03821 8.89595 9.12747 0.808716 19.0676 0.808716C23.8912 0.810745 28.4188 2.68825 31.8236 6.09593C35.2281 9.50362 37.1024 14.0333 37.1007 18.8508C37.0963 28.7909 29.0059 36.8793 19.0676 36.8793C19.067 36.8793 19.0679 36.8793 19.0676 36.8793H19.0597C16.0417 36.8782 13.0764 36.1212 10.4425 34.6846L0.882812 37.1916ZM10.8852 31.421L11.4329 31.7455C13.7337 33.111 16.3716 33.8332 19.0618 33.8346H19.0676C27.3285 33.8346 34.0522 27.112 34.0557 18.8497C34.0571 14.8456 32.4997 11.0805 29.6698 8.24827C26.8397 5.41608 23.0768 3.85545 19.0731 3.85371C10.8055 3.85371 4.08205 10.5754 4.07886 18.8375C4.0777 21.6688 4.86975 24.4259 6.37036 26.8119L6.72696 27.379L5.21243 32.9083L10.8852 31.421Z" fill="white"/>
<path d="M1.50977 36.5619L3.97957 27.5429C2.45576 24.9035 1.65472 21.9089 1.65559 18.8419C1.65936 9.24565 9.46886 1.43848 19.0642 1.43848C23.7215 1.44051 28.0926 3.25307 31.3788 6.54276C34.6658 9.83244 36.4749 14.2053 36.4732 18.8555C36.4691 28.4521 28.6593 36.2601 19.0651 36.2601C19.0642 36.2601 19.0654 36.2601 19.0651 36.2601H19.0573C16.1439 36.259 13.281 35.5278 10.7384 34.142L1.50977 36.5619Z" fill="#64B161"/>
<path d="M0.882812 37.1916L3.44104 27.8496C1.86302 25.1154 1.03299 22.0138 1.03415 18.8363C1.03821 8.89595 9.12747 0.808716 19.0676 0.808716C23.8912 0.810745 28.4188 2.68825 31.8236 6.09593C35.2281 9.50362 37.1024 14.0333 37.1007 18.8508C37.0963 28.7909 29.0059 36.8793 19.0676 36.8793C19.067 36.8793 19.0679 36.8793 19.0676 36.8793H19.0597C16.0417 36.8782 13.0764 36.1212 10.4425 34.6846L0.882812 37.1916ZM10.8852 31.421L11.4329 31.7455C13.7337 33.111 16.3716 33.8332 19.0618 33.8346H19.0676C27.3285 33.8346 34.0522 27.112 34.0557 18.8497C34.0571 14.8456 32.4997 11.0805 29.6698 8.24827C26.8397 5.41608 23.0768 3.85545 19.0731 3.85371C10.8055 3.85371 4.08205 10.5754 4.07886 18.8375C4.0777 21.6688 4.86975 24.4259 6.37036 26.8119L6.72696 27.379L5.21243 32.9083L10.8852 31.421Z" fill="white"/>
<path fill-rule="evenodd" clip-rule="evenodd" d="M14.5607 11.2995C14.2232 10.5492 13.8678 10.5342 13.5465 10.5211C13.2839 10.5098 12.9832 10.5104 12.6831 10.5104C12.3828 10.5104 11.8946 10.6234 11.4817 11.0743C11.0686 11.5251 9.9043 12.6152 9.9043 14.8322C9.9043 17.0495 11.5191 19.1917 11.7444 19.4926C11.9697 19.7932 14.8616 24.4882 19.4414 26.2943C23.2477 27.7955 24.0221 27.4969 24.8484 27.4218C25.6746 27.3467 27.5141 26.3317 27.8896 25.2796C28.2653 24.2275 28.2653 23.3259 28.1525 23.1371C28.0398 22.9496 27.7394 22.8368 27.2889 22.6115C26.8383 22.3863 24.6231 21.2959 24.21 21.1457C23.7968 20.9952 23.4965 20.9204 23.1961 21.3715C22.8955 21.8221 22.0327 22.8368 21.7697 23.1371C21.5068 23.4384 21.2438 23.4761 20.7933 23.2505C20.3428 23.0246 18.8914 22.5492 17.1699 21.0141C15.8305 19.8199 14.9259 18.3448 14.663 17.8937C14.4003 17.4432 14.6586 17.2205 14.861 16.9744C15.2254 16.5311 15.8369 15.7341 15.987 15.4338C16.1372 15.1328 16.0621 14.8699 15.9496 14.6443C15.8369 14.419 14.961 12.1907 14.5607 11.2995Z" fill="white"/>
</g>
<defs>
<clipPath id="clip0">
<rect width="38" height="38" fill="white"/>
</clipPath>
</defs>
</svg>
